<?xml version="1.0" encoding="UTF-8" standalone="no"?>
<!-- Generator: Adobe Illustrator 21.1.0, SVG Export Plug-In . SVG Version: 6.00 Build 0)  -->

<svg
   version="1.1"
   id="Calque_1"
   x="0px"
   y="0px"
   viewBox="0 0 155.1 79.4"
   style="enable-background:new 0 0 155.1 79.4;"
   width="450"
   height="230.367505"
   xml:space="preserve"
   sodipodi:docname="xeus-wren-logo.svg"
   inkscape:version="1.2.2 (b0a84865, 2022-12-01)"
   inkscape:export-filename="/home/derthorsten/Documents/blogpost/xeus_wasm/xeus-wren.png"
   inkscape:export-xdpi="696.216"
   inkscape:export-ydpi="696.216"
   xmlns:inkscape="http://www.inkscape.org/namespaces/inkscape"
   xmlns:sodipodi="http://sodipodi.sourceforge.net/DTD/sodipodi-0.dtd"
   xmlns="http://www.w3.org/2000/svg"
   xmlns:svg="http://www.w3.org/2000/svg"><sodipodi:namedview
   id="namedview12"
   pagecolor="#ffffff"
   bordercolor="#666666"
   borderopacity="1.0"
   inkscape:pageshadow="2"
   inkscape:pageopacity="0.0"
   inkscape:pagecheckerboard="0"
   showgrid="false"
   inkscape:zoom="1.4866667"
   inkscape:cx="325.22421"
   inkscape:cy="314.46188"
   inkscape:window-width="2480"
   inkscape:window-height="1387"
   inkscape:window-x="80"
   inkscape:window-y="25"
   inkscape:window-maximized="1"
   inkscape:current-layer="Calque_1"
   inkscape:showpageshadow="2"
   inkscape:deskcolor="#d1d1d1" /><defs
   id="defs21">
		
		
		
		
		
	
	
	
	
	
	

	
	
	
	
	

	
	
</defs>
<style
   type="text/css"
   id="style2">
	.st0{fill:#666666;}
	.st1{fill:#40B3C3;}
	.st2{opacity:0.28;fill:#40B3C3;}
</style>
<path
   id="path4143_4_"
   class="st1"
   d="m 5.5,0 c 0.1,0 0.3,0.1 0.4,0.1 2.7,0.9 5,2.2 5,2.3 2.1,1.5 4,3.4 5.3,5.6 0.5,0.7 5.7,8.6 9.5,14.2 -0.9,1.3 -1.7,2.5 -2.3,3.5 0,-0.1 -0.1,-0.1 -0.1,-0.2 C 19.4,19.7 12.6,9.5 12.1,8.7 11.2,7.3 9.9,6 8.3,5 8.3,5 6.6,3.9 4.4,3.2 3.5,2.9 2,2.6 0,2.4 V 49.2 C 2,49 3.5,48.7 4.4,48.4 6.6,47.7 8.3,46.6 8.3,46.6 10,45.5 11.2,44.2 12.2,42.8 12.7,42.1 19.5,31.8 23.4,26 26.6,21.1 34.7,8.9 35.3,8.1 36.7,5.9 38.5,4 40.6,2.5 c 0,-0.1 2.3,-1.4 5,-2.3 L 46.1,0 Z m 46,2.4 C 49.5,2.6 48,2.9 47.1,3.2 44.9,3.9 43.2,5 43.2,5 41.6,6 40.3,7.3 39.3,8.8 38.8,9.5 32,19.8 28.1,25.6 25,30.4 16.9,42.6 16.3,43.4 14.9,45.6 13.1,47.5 11,49 11,49.1 8.7,50.4 6,51.3 L 5.4,51.4 H 46 l -0.4,-0.1 c -2.7,-0.9 -5,-2.2 -5,-2.3 -2.1,-1.5 -4,-3.4 -5.3,-5.6 -0.5,-0.7 -5.7,-8.6 -9.5,-14.2 0.9,-1.3 1.7,-2.5 2.3,-3.5 0,0.1 0.1,0.1 0.1,0.2 3.9,5.8 10.7,16 11.2,16.8 1,1.4 2.2,2.7 3.9,3.8 0,0 1.7,1.1 3.9,1.8 0.9,0.3 2.4,0.5 4.4,0.8 v 2.3 h 0.1 v -49 z" /><path
   id="path7-3_3_"
   class="st2"
   d="m 28,25.7 c -0.6,0.9 -1.4,2.1 -2.3,3.5 3.8,5.7 9,13.6 9.5,14.2 1.4,2.2 3.2,4.1 5.3,5.6 0,0.1 2.3,1.4 5,2.3 0.2,0 0.4,0.1 0.6,0.1 h 5.3 V 49 C 49.4,48.8 47.9,48.5 47,48.2 44.8,47.5 43.1,46.4 43.1,46.4 41.5,45.4 40.2,44.1 39.2,42.6 38.8,42 32,31.8 28.1,26 v 0 c 0,-0.1 0,-0.2 -0.1,-0.3 M 5.3,0 H 0 V 2.4 C 2,2.6 3.5,2.9 4.4,3.2 6.6,3.9 8.3,5 8.3,5 c 1.6,1 2.9,2.3 3.9,3.8 0.5,0.7 7.3,11 11.2,16.8 v 0 c 0,0.1 0.1,0.1 0.1,0.2 0.6,-0.9 1.4,-2.1 2.3,-3.5 C 22,16.6 16.8,8.7 16.3,8 14.9,5.8 13.1,3.9 11,2.4 11,2.3 8.7,1 6,0.1 5.8,0.1 5.6,0 5.3,0" /><path
   class="st1"
   d="m 144.2,10.3 c -5.3,0 -10.1,2.4 -10.1,8.5 0,6.1 4.3,8 9.6,9.4 4.9,1.4 9,2.4 9,6.9 0,5.4 -3.9,7.1 -8.2,7.1 -3.9,0 -7.6,-1 -10.4,-2.8 l -1.1,2.1 c 3.3,2.2 7.3,3 11.6,3 5.7,0 10.6,-2.5 10.6,-9.4 0,-6.2 -4.8,-7.6 -10.4,-9.2 -5.1,-1.4 -8.1,-2.7 -8.1,-7 0,-4.9 3.4,-6.3 7.7,-6.3 2.8,0 5.6,0.4 7.9,1.7 l 1,-2.2 c -3,-1.4 -6.1,-1.8 -9.1,-1.8 z"
   id="path8" /><path
   class="st1"
   d="m 119.7,10.2 v 18.2 c 0,8.1 -1.2,13.8 -8.8,13.8 h -0.7 c -7.7,0 -8.8,-5.7 -8.8,-13.8 V 10.3 c -0.9,0.5 -1.9,1 -2.6,1.7 v 17.2 c 0,7.2 1.3,15.3 11,15.3 h 1.5 c 9.6,0 11,-8.1 11.1,-15.4 V 11.9 c -0.9,-0.7 -1.8,-1.2 -2.7,-1.7 z"
   id="path10" /><path
   class="st1"
   d="m 76.5,10.3 c -6,0 -13.1,2.2 -13.1,17.2 0,13.9 6.1,17.1 13.6,17.1 4,0 7.6,-0.7 10.6,-2.6 l -1,-2.2 c -3.1,1.8 -6,2.4 -9.6,2.4 -5.9,0 -10.6,-2.1 -11,-12.7 v -1.3 h 22.9 v 0 -0.9 C 89,14.5 84.3,10.3 76.5,10.3 Z M 65.9,25.9 c 0.2,-11.2 5.2,-13.3 10.5,-13.3 5.9,0 9.9,3.1 9.9,13.3 z"
   id="path12" />
<g
   id="g791"
   transform="matrix(0.07014707,0,0,0.07187455,114.78481,50.283451)"><path
     fill="#41cd52"
     d="M 63.5,0 H 462 V 274.79 C 440.6,296.26 419.13,317.66 397.61,339 H 0 V 63.39 C 21.08,42.18 42.34,21.13 63.5,0 Z"
     id="path6" /><path
     d="M 122.37,71.33 C 137.5,61.32 156.21,58.79 174,58.95 c 16.94,0.21 34.72,3.18 48.76,13.29 10.2,7.17 16.83,18.24 21.25,29.69 7.15,18.8 9.25,39.1 9.49,59.08 0.03,20.12 -0.88,40.68 -7.54,59.85 -4.46,13.04 -12.95,24.62 -24.15,32.66 8.06,13.06 16.28,26.02 24.34,39.08 -10.13,4.67 -20.23,9.37 -30.37,14.02 -8.63,-14.24 -17.22,-28.51 -25.88,-42.73 -11.71,1.92 -23.69,1.77 -35.46,0.47 -14.1,-1.69 -28.47,-5.99 -39.35,-15.48 -8.36,-7.24 -13.61,-17.37 -17.2,-27.67 -5.88,-17.42 -7.46,-35.96 -7.73,-54.24 -0.14,-19.76 1.12,-39.83 7.08,-58.79 4.61,-14.26 12.24,-28.49 25.13,-36.85 z"
     id="path8-7"
     fill="#ffffff" /><path
     d="m 294.13,70.69 c 10.6,-0.01 21.2,-0.01 31.8,0 0.03,14.02 -0.01,28.03 0.02,42.05 13.55,0.02 27.1,0 40.65,0.01 -0.23,9.1 -0.48,18.2 -0.74,27.3 -13.54,0.03 -27.07,-0.01 -40.61,0.02 0.03,22.98 -0.07,45.96 0.05,68.94 0.26,6.29 0.12,12.93 2.89,18.74 2.02,4.48 7.46,5.63 11.89,5.78 8.35,-0.03 16.69,-0.52 25.04,-0.67 0.51,8.36 1,16.73 1.48,25.09 -16.61,2.79 -34.04,6.13 -50.54,0.91 -6.95,-2.06 -13.43,-6.67 -16.25,-13.54 -5.05,-11.69 -5.46,-24.7 -5.68,-37.25 -0.02,-22.67 0,-45.33 -0.01,-68 -7.39,-0.02 -14.78,0.01 -22.17,-0.02 -0.02,-9.09 -0.02,-18.19 0,-27.29 7.39,-0.03 14.77,0.01 22.16,-0.02 0.03,-14.02 -0.01,-28.03 0.02,-42.05 z"
     id="path10-6"
     fill="#ffffff" /><path
     fill="#41cd52"
     d="m 160.51,87.7 c 10.29,-1.34 21.09,-0.98 30.83,2.91 7.89,3.12 14.59,9.23 18.13,16.97 5.43,11.73 7.51,24.68 8.56,37.47 1.14,17.02 0.98,34.2 -1.37,51.12 -1.65,10.07 -4,20.68 -10.82,28.62 -6.92,7.97 -17.59,11.39 -27.83,12.19 -10.8,0.79 -22.19,0 -31.94,-5.11 -5.69,-3.03 -10.52,-7.78 -13.34,-13.6 -3.42,-6.97 -5.3,-14.58 -6.62,-22.2 -3.98,-24.16 -4.94,-49.16 0.5,-73.18 2.24,-9.06 5.5,-18.36 12.12,-25.19 5.76,-5.85 13.78,-8.87 21.78,-10 z"
     id="path12-2" /></g></svg>
